<svg xmlns="http://www.w3.org/2000/svg" data-name="Layer 1" viewBox="0 0 100 125" x="0px" y="0px"><title>Dark Mode</title><path d="M70.69,40.21c0-6.24,2.46-8.7,8.69-8.7-6.23,0-8.69-2.47-8.69-8.7,0,6.23-2.47,8.7-8.7,8.7C68.22,31.51,70.69,34,70.69,40.21Zm5.42,3.33c0,4.13-1.63,5.76-5.75,5.76,4.12,0,5.75,1.63,5.75,5.75,0-4.12,1.64-5.75,5.76-5.75C77.75,49.3,76.11,47.67,76.11,43.54ZM54.52,27.26c0-3,1.17-4.13,4.12-4.13-3,0-4.12-1.16-4.12-4.12,0,3-1.17,4.12-4.13,4.12C53.35,23.13,54.52,24.3,54.52,27.26ZM93.42,76a1.57,1.57,0,0,0-1.67-.66A45,45,0,0,1,39.19,15.68,45.48,45.48,0,0,1,45,5a1.57,1.57,0,0,0-1.63-2.45,48.14,48.14,0,1,0,50.05,75.2A1.57,1.57,0,0,0,93.42,76ZM38.66,91.5A45,45,0,0,1,40,6.76,48.11,48.11,0,0,0,64.39,76.57a47.9,47.9,0,0,0,23.83,2.59A45.12,45.12,0,0,1,38.66,91.5Z"/><text x="0" y="115" fill="#000000" font-size="5px" font-weight="bold" font-family="'Helvetica Neue', Helvetica, Arial-Unicode, Arial, Sans-serif">Created by Rainbow Designs</text><text x="0" y="120" fill="#000000" font-size="5px" font-weight="bold" font-family="'Helvetica Neue', Helvetica, Arial-Unicode, Arial, Sans-serif">from the Noun Project</text></svg>