<svg xmlns="http://www.w3.org/2000/svg" viewBox="0 0 100 125" x="0px" y="0px"><title>icon-Prototype</title><path d="M57.56,28.34a1,1,0,0,0-1.06.07,1.14,1.14,0,0,0-.5,1,.9.9,0,0,0,.56.76c4.9,2.29,16.33,8.85,16.56,20.42C73.31,60.21,65.06,67,57.3,69.17S38.45,71.4,32.12,64.35A20.4,20.4,0,0,1,29,42.7a24.46,24.46,0,0,1,8.57-9.91c2.18-1.47,9.65-6.1,14.58-3.75a.47.47,0,0,0,.63-.22.45.45,0,0,0-.19-.6h0c-3.92-2.15-9.07-.14-12.61,1.56a27.21,27.21,0,0,0-10.3,8.53,22.23,22.23,0,0,0-1.29,24c1.84,3.22,7.21,10,19.61,10a39.77,39.77,0,0,0,5.35-.39c8.22-1.15,18.72-6.3,21.24-17.05C77.43,42.83,67.65,33.27,57.56,28.34Z"/><path d="M34.55,26.36h0a.42.42,0,0,0,.37-.29h0a30.65,30.65,0,0,0,.53-5.91c0-.7,0-1.4.07-2.08l.09-1.86c.05-1.08.1-2.18.16-3.28A86.68,86.68,0,0,0,40,20.57a1,1,0,0,0,.93.49,1.16,1.16,0,0,0,1-.64.91.91,0,0,0-.1-1A61.75,61.75,0,0,1,35.92,8.93a.79.79,0,0,0-1-.46.91.91,0,0,0-.74.89c0,2.26,0,4.55-.06,6.77l0,1.93c0,.68,0,1.37-.07,2.07a30.78,30.78,0,0,0,.12,5.92A.44.44,0,0,0,34.55,26.36Z"/><path d="M52.57,20.19a.49.49,0,0,0,.68-.14c1-1.4,1.88-2.82,2.81-4.24,1-1.6,2.11-3.23,3.2-4.83-.16,2.23-.23,4.34-.27,6.08,0,.39-.06.85-.1,1.36-.17,1.85-.38,4.16.71,5.35a1,1,0,0,0,.73.31,1,1,0,0,0,.51-.13,1.31,1.31,0,0,0,.77-1.23,1,1,0,0,0-.71-1l0,0a12.68,12.68,0,0,1,0-2.23c0-.33,0-.61,0-.8q0-1.8,0-3.6c0-1.74.13-3.49.22-5.19,0-.68.07-1.35.11-2A.83.83,0,0,0,60.65,7a.87.87,0,0,0-1,.39c-1.44,2.62-3,5.22-4.59,7.74-.89,1.45-1.79,2.91-2.66,4.37A.47.47,0,0,0,52.57,20.19Z"/><path d="M66.44,27.38h0l1.49-.94a82.15,82.15,0,0,1,8.24-4.78,48,48,0,0,0-3.69,6.75,1,1,0,0,0,.51,1.3.92.92,0,0,0,.39.09.84.84,0,0,0,.75-.5,82,82,0,0,1,5.05-9.11.79.79,0,0,0-.1-1A.83.83,0,0,0,78,19c-.94.56-1.89,1.1-2.84,1.64a74,74,0,0,0-9.29,6,.44.44,0,0,0-.08.6A.45.45,0,0,0,66.44,27.38Z"/><path d="M77,36.57a.63.63,0,0,0,.57.69c3.92.38,7.89.49,11.78.55-2,1.29-3.83,2.48-5.57,3.58a1,1,0,0,0,.53,1.91,1,1,0,0,0,.5-.14,51.06,51.06,0,0,0,8.09-5.55.87.87,0,0,0,.21-1,.81.81,0,0,0-.85-.55,95.81,95.81,0,0,1-14.63,0A.58.58,0,0,0,77,36.57Z"/><path d="M93.84,55.63c-3.1-.7-6.24-1.46-9.28-2.19l-4-1a.62.62,0,0,0-.73.45.59.59,0,0,0,.42.73l4,1.12,5.69,1.6a72.22,72.22,0,0,0-7.08,1.89.9.9,0,0,0-.63,1.12.94.94,0,0,0,.92.73l.2,0a93.71,93.71,0,0,0,10-2.58l.53-.15a.93.93,0,0,0,.64-.92A.84.84,0,0,0,93.84,55.63Z"/><path d="M87.47,75.91c-1.64-1.64-3.21-3.41-4.73-5.12s-3.27-3.69-5-5.42a.55.55,0,0,0-.79,0,.58.58,0,0,0,0,.82C78,67.5,79.23,68.8,80.4,70.06l.47.51c-1.7-1.2-3.39-2.29-5-3.31a1,1,0,0,0-1-.06,1.16,1.16,0,0,0-.59,1,1,1,0,0,0,.5.89c3.18,2,6.19,4.21,9.1,6.39C85,76.22,86,77,87,77.76a.75.75,0,0,0,.44.15.84.84,0,0,0,.58-1.42C87.87,76.29,87.67,76.1,87.47,75.91Z"/><path d="M66.75,76a.56.56,0,0,0-.54-.57h0a.56.56,0,0,0-.57.55c-.15,3.27-.14,6.63,0,10.15q-.92-2.22-1.85-4.39L62.43,78.5a.94.94,0,0,0-.76-.61.89.89,0,0,0-.85.36.93.93,0,0,0-.09,1c.47,1.08.93,2.16,1.39,3.24,1.27,3,2.59,6.05,4,9a.7.7,0,0,0,.65.45.76.76,0,0,0,.21,0,.92.92,0,0,0,.65-1h0A91.87,91.87,0,0,1,66.75,76Z"/><path d="M49,79.34A.79.79,0,0,0,48,80a50.49,50.49,0,0,1-3.66,10.69,14.34,14.34,0,0,1-1-4.84,34.25,34.25,0,0,1,0-4c0-.8.05-1.61.05-2.42a.52.52,0,0,0-.44-.5.53.53,0,0,0-.55.36A20.62,20.62,0,0,0,42,87.29c.21,1.85.55,3.95,1.86,5.46a.73.73,0,0,0,.56.25h.09a.76.76,0,0,0,.61-.39,40.28,40.28,0,0,0,4.54-12.23A.88.88,0,0,0,49,79.34Z"/><path d="M32,74.74a.83.83,0,0,0-.82.24c-2.2,2.23-4.33,4.26-6.46,6.14a55.32,55.32,0,0,1,2.86-8.65.58.58,0,0,0-.09-.59.67.67,0,0,0-.67-.21.57.57,0,0,0-.4.35c-.25.46-.48.93-.71,1.41a3.94,3.94,0,0,1-.93.77.37.37,0,0,0-.08.48.36.36,0,0,0,.39.13,41,41,0,0,0-2.4,8.27.83.83,0,0,0,.38.87.8.8,0,0,0,.4.11.87.87,0,0,0,.55-.2,113.62,113.62,0,0,0,8.42-7.63.83.83,0,0,0,.23-.83A1,1,0,0,0,32,74.74Z"/><path d="M22.56,66.62a.93.93,0,0,0-.93-.33c-3,.51-6,.95-8.92,1.37l-3.53.51a62.51,62.51,0,0,1,10.48-7.72.44.44,0,0,0,.17-.59.47.47,0,0,0-.6-.22h0A43.82,43.82,0,0,0,6.16,68.79a.89.89,0,0,0-.14,1,.74.74,0,0,0,.67.45h.1c2-.27,4.08-.57,6.12-.86,2.94-.42,6-.86,9-1.22a.95.95,0,0,0,.67-1.54Z"/><path d="M15.69,55a1,1,0,0,0,.65.28,1,1,0,0,0,.71-.31.92.92,0,0,0,0-1.34c-2.59-2.57-5.09-5.28-7.52-7.91a18.62,18.62,0,0,0,7.48.47.49.49,0,0,0,.39-.5.47.47,0,0,0-.4-.47l-.85-.12A34.72,34.72,0,0,1,6.88,43a1,1,0,0,0-1.2.29,1,1,0,0,0,.07,1.2A144.56,144.56,0,0,0,15.69,55Z"/><path d="M14.74,26.5c.93,3.45,2.89,6.72,4.78,9.88.43.72.86,1.43,1.27,2.13a.81.81,0,0,0,.73.43h0a1,1,0,0,0,.83-.52.78.78,0,0,0-.06-.83A58.09,58.09,0,0,1,19,31.85c-.7-1.31-1.43-2.64-2.21-3.94a42.49,42.49,0,0,1,9.88,3.92.88.88,0,0,0,.44.12.84.84,0,0,0,.45-.13,1,1,0,0,0,.45-.88.78.78,0,0,0-.47-.66A52.71,52.71,0,0,0,16.1,26.41a.61.61,0,0,0-.3,0l-.2-.31A.5.5,0,0,0,15,26a.47.47,0,0,0-.25.55Z"/><text x="0" y="115" fill="#000000" font-size="5px" font-weight="bold" font-family="'Helvetica Neue', Helvetica, Arial-Unicode, Arial, Sans-serif">Created by Beautifulife Studio</text><text x="0" y="120" fill="#000000" font-size="5px" font-weight="bold" font-family="'Helvetica Neue', Helvetica, Arial-Unicode, Arial, Sans-serif">from the Noun Project</text></svg>