<?xml version="1.0" encoding="UTF-8"?>
<svg xmlns="http://www.w3.org/2000/svg" xmlns:xlink="http://www.w3.org/1999/xlink" width="2500" height="2500" viewBox="0 0 2500 2500">
<rect x="-250" y="-250" width="3000" height="3000" fill="rgb(100%, 100%, 100%)" fill-opacity="1"/>
<path fill-rule="evenodd" fill="rgb(85.546875%, 72.459412%, 41.967773%)" fill-opacity="1" d="M 1131.140625 1043.019531 C 1147.730469 1038.808594 1161.210938 1026.550781 1167.109375 1010.679688 L 1131.140625 1010.679688 Z M 1170.339844 980.078125 L 1170.339844 940.859375 L 1131.128906 940.859375 L 1131.128906 954.441406 L 1131.140625 980.078125 Z M 1170.339844 910.261719 L 1170.339844 796.828125 C 1171.628906 796.441406 1172.921875 796.058594 1174.210938 795.691406 L 1174.121094 795.710938 C 1194.5 789.859375 1215.859375 786.320312 1237.878906 785.371094 C 1242.378906 789.390625 1246.429688 793.878906 1249.960938 798.78125 C 1253.488281 793.878906 1257.539062 789.390625 1262.03125 785.371094 C 1284.058594 786.320312 1305.421875 789.859375 1325.800781 795.710938 L 1325.710938 795.691406 C 1327 796.058594 1328.289062 796.441406 1329.578125 796.828125 L 1329.578125 796.851562 L 1329.589844 796.859375 L 1329.589844 910.261719 L 1368.789062 910.261719 L 1368.789062 846.820312 C 1368.789062 840.320312 1367.578125 834.089844 1365.371094 828.339844 C 1365.261719 828.058594 1365.148438 827.78125 1365.039062 827.511719 L 1365.03125 827.480469 C 1364.921875 827.199219 1364.800781 826.929688 1364.691406 826.648438 C 1359.628906 814.789062 1350.28125 805.160156 1338.609375 799.738281 L 1338.75 799.789062 L 1338.601562 799.71875 C 1359.359375 806.800781 1378.988281 816.300781 1397.179688 827.871094 L 1397.179688 827.890625 L 1397.191406 827.890625 C 1398.640625 833.980469 1399.398438 840.328125 1399.398438 846.839844 L 1399.398438 910.261719 L 1463.121094 910.261719 C 1469.53125 910.28125 1475.78125 911.050781 1481.769531 912.46875 C 1493.351562 930.660156 1502.839844 950.300781 1509.921875 971.058594 C 1501.671875 953.269531 1483.621094 940.859375 1462.820312 940.859375 L 1399.398438 940.859375 L 1399.398438 980.078125 L 1512.808594 980.078125 C 1513.199219 981.359375 1513.578125 982.648438 1513.949219 983.949219 L 1513.929688 983.859375 C 1519.769531 1004.238281 1523.320312 1025.589844 1524.269531 1047.621094 C 1520.25 1052.109375 1515.761719 1056.160156 1510.859375 1059.691406 C 1515.761719 1063.21875 1520.25 1067.28125 1524.269531 1071.769531 C 1523.320312 1093.800781 1519.78125 1115.148438 1513.929688 1135.53125 L 1513.949219 1135.441406 C 1513.578125 1136.738281 1513.199219 1138.03125 1512.808594 1139.308594 L 1399.398438 1139.308594 L 1399.398438 1178.53125 L 1462.820312 1178.53125 C 1483.621094 1178.53125 1501.671875 1166.109375 1509.921875 1148.328125 C 1502.839844 1169.089844 1493.351562 1188.730469 1481.769531 1206.921875 C 1476.691406 1208.121094 1471.429688 1208.859375 1466.039062 1209.070312 L 1399.398438 1209.070312 L 1399.398438 1272.789062 C 1399.378906 1279.199219 1398.609375 1285.441406 1397.191406 1291.441406 C 1379 1303.011719 1359.371094 1312.511719 1338.609375 1319.578125 L 1338.808594 1319.488281 L 1338.601562 1319.558594 C 1356.378906 1311.308594 1368.789062 1293.269531 1368.789062 1272.460938 L 1368.789062 1209.070312 L 1329.589844 1209.070312 L 1329.589844 1322.46875 C 1328.300781 1322.859375 1327.011719 1323.238281 1325.71875 1323.609375 L 1325.808594 1323.601562 C 1305.421875 1329.441406 1284.070312 1332.980469 1262.039062 1333.941406 C 1257.550781 1329.921875 1253.5 1325.421875 1249.96875 1320.519531 C 1246.441406 1325.421875 1242.378906 1329.921875 1237.890625 1333.941406 C 1215.871094 1332.980469 1194.511719 1329.441406 1174.128906 1323.601562 L 1174.21875 1323.609375 C 1172.929688 1323.238281 1171.640625 1322.859375 1170.351562 1322.46875 L 1170.351562 1322.449219 L 1170.339844 1322.449219 L 1170.339844 1209.070312 L 1131.128906 1209.070312 L 1131.128906 1272.480469 C 1131.140625 1278.339844 1132.121094 1283.96875 1133.921875 1289.230469 C 1134.019531 1289.511719 1134.121094 1289.789062 1134.21875 1290.078125 L 1134.230469 1290.101562 L 1134.550781 1290.941406 L 1134.558594 1290.960938 C 1134.671875 1291.238281 1134.769531 1291.519531 1134.890625 1291.800781 L 1134.898438 1291.820312 C 1135.011719 1292.101562 1135.121094 1292.378906 1135.238281 1292.648438 C 1140.300781 1304.511719 1149.648438 1314.148438 1161.320312 1319.558594 L 1161.179688 1319.511719 L 1161.328125 1319.589844 C 1140.570312 1312.511719 1120.929688 1303.011719 1102.75 1291.441406 L 1102.738281 1291.421875 L 1102.738281 1291.410156 C 1101.53125 1286.328125 1100.800781 1281.070312 1100.589844 1275.679688 L 1100.589844 1209.070312 L 1033.960938 1209.070312 C 1028.570312 1208.859375 1023.308594 1208.121094 1018.230469 1206.921875 C 1006.648438 1188.730469 997.15625 1169.089844 990.078125 1148.328125 C 998.328125 1166.109375 1016.378906 1178.53125 1037.179688 1178.53125 L 1100.589844 1178.53125 L 1100.589844 1139.308594 L 987.191406 1139.308594 C 986.800781 1138.03125 986.421875 1136.738281 986.050781 1135.441406 L 986.066406 1135.53125 C 980.222656 1115.148438 976.683594 1093.800781 975.730469 1071.769531 C 979.746094 1067.28125 984.242188 1063.21875 989.140625 1059.691406 C 984.242188 1056.160156 979.746094 1052.109375 975.730469 1047.621094 C 976.683594 1025.589844 980.222656 1004.238281 986.066406 983.859375 L 986.050781 983.949219 C 986.421875 982.648438 986.800781 981.359375 987.191406 980.078125 L 1100.589844 980.078125 L 1100.589844 940.859375 L 1037.179688 940.859375 C 1016.378906 940.859375 998.328125 953.269531 990.078125 971.058594 C 997.15625 950.300781 1006.648438 930.660156 1018.230469 912.46875 C 1024.320312 911.03125 1030.660156 910.261719 1037.179688 910.261719 L 1100.589844 910.261719 L 1100.589844 843.601562 C 1100.800781 838.210938 1101.53125 832.949219 1102.738281 827.871094 C 1120.921875 816.300781 1140.558594 806.800781 1161.320312 799.71875 L 1161.121094 799.808594 L 1161.328125 799.738281 C 1143.550781 807.988281 1131.140625 826.039062 1131.128906 846.839844 L 1131.128906 910.261719 Z M 1329.589844 940.859375 L 1329.589844 980.078125 L 1368.789062 980.078125 L 1368.789062 940.859375 Z M 1332.800781 1010.679688 L 1332.921875 1010.980469 L 1332.921875 1011 C 1333.050781 1011.328125 1333.179688 1011.648438 1333.308594 1011.980469 L 1333.320312 1012 C 1333.449219 1012.320312 1333.578125 1012.648438 1333.71875 1012.96875 L 1333.730469 1012.988281 C 1340.039062 1027.730469 1353 1039.019531 1368.789062 1043.019531 L 1368.789062 1010.679688 Z M 1399.398438 1010.679688 L 1399.398438 1044.148438 L 1462.820312 1044.148438 C 1464.671875 1044.148438 1466.511719 1044.21875 1468.328125 1044.339844 C 1490.5 1041.96875 1508.609375 1025.488281 1513.441406 1004.121094 C 1503.550781 1008.339844 1492.691406 1010.679688 1481.308594 1010.679688 Z M 1399.398438 1075.238281 L 1399.398438 1108.710938 L 1481.308594 1108.710938 C 1492.691406 1108.710938 1503.550781 1111.050781 1513.441406 1115.261719 C 1508.609375 1093.898438 1490.5 1077.421875 1468.328125 1075.050781 C 1466.511719 1075.171875 1464.671875 1075.238281 1462.820312 1075.238281 Z M 1368.789062 1178.53125 L 1368.789062 1139.308594 L 1329.589844 1139.308594 L 1329.589844 1178.53125 Z M 1368.789062 1108.710938 L 1368.789062 1076.289062 C 1352.160156 1080.5 1338.671875 1092.800781 1332.78125 1108.710938 Z M 1170.339844 1178.53125 L 1170.339844 1139.308594 L 1131.140625 1139.308594 L 1131.128906 1164.890625 L 1131.128906 1178.53125 Z M 1167.148438 1108.710938 L 1167.011719 1108.320312 L 1167 1108.300781 C 1166.878906 1107.96875 1166.75 1107.648438 1166.621094 1107.328125 L 1166.609375 1107.300781 C 1166.480469 1106.980469 1166.351562 1106.660156 1166.210938 1106.339844 L 1166.199219 1106.308594 C 1159.890625 1091.570312 1146.921875 1080.28125 1131.140625 1076.28125 L 1131.140625 1108.710938 Z M 1100.589844 1108.710938 L 1100.589844 1075.238281 L 1037.179688 1075.238281 C 1035.328125 1075.238281 1033.488281 1075.171875 1031.671875 1075.050781 C 1009.5 1077.421875 991.390625 1093.898438 986.5625 1115.261719 C 996.449219 1111.050781 1007.308594 1108.710938 1018.691406 1108.710938 Z M 1100.589844 1044.148438 L 1100.589844 1010.679688 L 1018.691406 1010.679688 C 1007.308594 1010.679688 996.449219 1008.339844 986.5625 1004.121094 C 991.390625 1025.488281 1009.5 1041.96875 1031.671875 1044.339844 C 1033.488281 1044.21875 1035.328125 1044.148438 1037.179688 1044.148438 Z M 1233.378906 1178.53125 C 1229.160156 1161.898438 1216.859375 1148.398438 1200.949219 1142.511719 L 1200.949219 1178.53125 Z M 1200.949219 976.878906 C 1216.859375 970.988281 1229.160156 957.488281 1233.378906 940.859375 L 1200.949219 940.859375 Z M 1200.949219 910.261719 L 1234.421875 910.261719 L 1234.421875 846.820312 C 1234.421875 844.96875 1234.480469 843.128906 1234.601562 841.308594 C 1234.199219 837.5 1233.371094 833.808594 1232.179688 830.289062 C 1232.070312 829.980469 1231.960938 829.660156 1231.851562 829.351562 L 1231.839844 829.328125 C 1231.730469 829.019531 1231.621094 828.710938 1231.5 828.410156 L 1231.488281 828.378906 C 1231.371094 828.070312 1231.25 827.769531 1231.128906 827.46875 C 1224.800781 811.878906 1211.089844 800 1194.398438 796.230469 L 1194.601562 796.691406 L 1194.78125 797.128906 L 1194.789062 797.160156 L 1194.96875 797.601562 L 1194.980469 797.621094 L 1195.160156 798.070312 L 1195.171875 798.089844 L 1195.339844 798.539062 L 1195.351562 798.558594 L 1195.53125 799.011719 L 1195.539062 799.03125 L 1195.710938 799.480469 L 1195.710938 799.511719 L 1195.878906 799.960938 L 1195.890625 799.980469 L 1196.058594 800.429688 L 1196.058594 800.449219 L 1196.230469 800.910156 L 1196.238281 800.929688 L 1196.398438 801.390625 L 1196.398438 801.410156 C 1199.351562 809.859375 1200.949219 818.929688 1200.949219 828.359375 Z M 1265.511719 910.261719 L 1298.96875 910.261719 L 1298.96875 828.328125 C 1298.96875 816.960938 1301.308594 806.109375 1305.519531 796.230469 C 1284.160156 801.070312 1267.691406 819.171875 1265.320312 841.328125 C 1265.449219 843.160156 1265.511719 844.988281 1265.511719 846.839844 Z M 1298.96875 940.859375 L 1266.621094 940.859375 C 1270.828125 957.46875 1283.101562 970.949219 1298.96875 976.851562 Z M 1298.96875 1142.539062 C 1283.101562 1148.441406 1270.828125 1161.921875 1266.621094 1178.53125 L 1298.96875 1178.53125 Z M 1298.96875 1209.070312 L 1265.511719 1209.070312 L 1265.511719 1272.480469 C 1265.511719 1274.339844 1265.449219 1276.171875 1265.320312 1277.988281 C 1265.730469 1281.808594 1266.558594 1285.488281 1267.75 1289.019531 C 1267.859375 1289.328125 1267.960938 1289.640625 1268.078125 1289.949219 L 1268.078125 1289.980469 C 1268.199219 1290.289062 1268.308594 1290.589844 1268.429688 1290.898438 L 1268.441406 1290.921875 C 1268.550781 1291.230469 1268.679688 1291.539062 1268.800781 1291.839844 C 1275.128906 1307.429688 1288.839844 1319.300781 1305.53125 1323.078125 L 1305.328125 1322.609375 L 1305.148438 1322.171875 L 1305.140625 1322.148438 L 1304.960938 1321.699219 L 1304.949219 1321.679688 L 1304.769531 1321.238281 L 1304.761719 1321.210938 L 1304.578125 1320.769531 L 1304.578125 1320.738281 L 1304.390625 1320.269531 L 1304.21875 1319.820312 L 1304.210938 1319.800781 L 1304.050781 1319.351562 L 1304.039062 1319.320312 L 1303.871094 1318.871094 L 1303.859375 1318.851562 L 1303.699219 1318.398438 L 1303.691406 1318.371094 L 1303.53125 1317.921875 L 1303.519531 1317.898438 L 1303.371094 1317.441406 C 1300.519531 1309.121094 1298.96875 1300.199219 1298.96875 1290.949219 Z M 1234.421875 1209.070312 L 1200.949219 1209.070312 L 1200.949219 1290.96875 C 1200.949219 1302.339844 1198.621094 1313.191406 1194.410156 1323.070312 C 1215.769531 1318.238281 1232.238281 1300.128906 1234.601562 1277.96875 C 1234.480469 1276.148438 1234.421875 1274.308594 1234.421875 1272.460938 Z M 1182.851562 1044.148438 L 1201.558594 1044.148438 C 1204.558594 1044.148438 1207.53125 1044.320312 1210.449219 1044.628906 L 1234.898438 1044.628906 L 1234.898438 1020.078125 C 1234.578125 1017.171875 1234.421875 1014.199219 1234.421875 1011.199219 L 1234.421875 992.628906 C 1224.351562 1000.679688 1212.378906 1006.421875 1199.320312 1009.058594 C 1196.671875 1022.128906 1190.910156 1034.089844 1182.851562 1044.148438 Z M 1265.03125 1044.628906 L 1289.558594 1044.628906 C 1292.480469 1044.320312 1295.441406 1044.148438 1298.441406 1044.148438 L 1317.089844 1044.148438 C 1312.53125 1038.46875 1308.710938 1032.171875 1305.769531 1025.410156 L 1305.761719 1025.378906 C 1305.601562 1025.019531 1305.449219 1024.660156 1305.289062 1024.289062 L 1305.28125 1024.269531 C 1305.128906 1023.898438 1304.980469 1023.53125 1304.828125 1023.160156 L 1304.820312 1023.140625 C 1304.671875 1022.769531 1304.53125 1022.398438 1304.390625 1022.03125 L 1304.378906 1022 C 1302.78125 1017.828125 1301.511719 1013.511719 1300.609375 1009.050781 C 1287.539062 1006.398438 1275.570312 1000.628906 1265.511719 992.570312 L 1265.511719 1011.230469 C 1265.511719 1014.230469 1265.351562 1017.199219 1265.03125 1020.121094 Z M 1249.820312 1059.859375 L 1250 1059.980469 L 1250.25 1059.648438 L 1250.148438 1059.511719 L 1250 1059.398438 L 1249.71875 1059.609375 L 1249.679688 1059.660156 Z M 1182.910156 1075.238281 L 1201.558594 1075.238281 C 1204.558594 1075.238281 1207.519531 1075.070312 1210.441406 1074.761719 L 1234.898438 1074.761719 L 1234.898438 1099.199219 C 1234.578125 1102.121094 1234.421875 1105.078125 1234.421875 1108.078125 L 1234.421875 1126.761719 C 1224.359375 1118.71875 1212.390625 1112.96875 1199.328125 1110.328125 C 1198.429688 1105.851562 1197.148438 1101.488281 1195.550781 1097.300781 L 1195.539062 1097.28125 C 1195.398438 1096.910156 1195.25 1096.539062 1195.109375 1096.171875 L 1195.101562 1096.140625 C 1194.949219 1095.769531 1194.800781 1095.410156 1194.640625 1095.039062 L 1194.628906 1095.019531 C 1194.480469 1094.648438 1194.328125 1094.28125 1194.171875 1093.921875 L 1194.160156 1093.898438 C 1191.230469 1087.171875 1187.429688 1080.898438 1182.910156 1075.238281 Z M 1265.03125 1074.761719 L 1289.558594 1074.761719 C 1292.480469 1075.070312 1295.441406 1075.238281 1298.441406 1075.238281 L 1317.011719 1075.238281 C 1308.96875 1085.300781 1303.21875 1097.28125 1300.589844 1110.351562 C 1287.53125 1113 1275.558594 1118.761719 1265.511719 1126.820312 L 1265.511719 1108.101562 C 1265.511719 1105.101562 1265.351562 1102.140625 1265.03125 1099.21875 L 1265.03125 1074.761719 "/>
<path fill-rule="evenodd" fill="rgb(0%, 0%, 0%)" fill-opacity="1" d="M 666.753906 1444.859375 L 679.769531 1444.859375 L 679.769531 1532.496094 C 679.769531 1545.96875 678.71875 1555.34375 676.636719 1560.617188 C 674.527344 1565.859375 671.0625 1570.078125 666.148438 1573.214844 C 661.269531 1576.378906 655.332031 1577.945312 648.398438 1577.945312 C 643.15625 1577.945312 637.972656 1576.921875 632.878906 1574.902344 C 627.785156 1572.882812 622.121094 1569.324219 615.941406 1564.203125 L 622.8125 1553.894531 C 629.625 1558.628906 635.261719 1561.972656 639.75 1563.902344 C 642.703125 1565.199219 645.597656 1565.828125 648.429688 1565.828125 C 652.136719 1565.828125 655.511719 1564.714844 658.554688 1562.484375 C 661.597656 1560.257812 663.738281 1557.273438 664.945312 1553.566406 C 666.148438 1549.855469 666.753906 1542.6875 666.753906 1532.046875 Z M 799.082031 1444.859375 L 873.398438 1444.859375 L 873.398438 1457.519531 L 812.101562 1457.519531 L 812.101562 1498.199219 L 872.855469 1498.199219 L 872.855469 1510.859375 L 812.101562 1510.859375 L 812.101562 1562.03125 L 872.855469 1562.03125 L 872.855469 1574.691406 L 799.082031 1574.691406 Z M 976.28125 1444.859375 L 989.425781 1444.859375 L 1016.148438 1538.347656 L 1053.828125 1444.859375 L 1056.089844 1444.859375 L 1092.820312 1538.347656 L 1119.710938 1444.859375 L 1132.878906 1444.859375 L 1095.53125 1574.691406 L 1093.429688 1574.691406 L 1054.851562 1476.511719 L 1015.28125 1574.691406 L 1013.410156 1574.691406 Z M 1244.949219 1444.859375 L 1319.269531 1444.859375 L 1319.269531 1457.519531 L 1257.96875 1457.519531 L 1257.96875 1498.199219 L 1318.730469 1498.199219 L 1318.730469 1510.859375 L 1257.96875 1510.859375 L 1257.96875 1562.03125 L 1318.730469 1562.03125 L 1318.730469 1574.691406 L 1244.949219 1574.691406 Z M 1429.390625 1444.859375 L 1442.410156 1444.859375 L 1442.410156 1562.03125 L 1492.488281 1562.03125 L 1492.488281 1574.691406 L 1429.390625 1574.691406 Z M 1601.28125 1444.859375 L 1627.199219 1444.859375 C 1641.640625 1444.859375 1651.429688 1445.460938 1656.558594 1446.640625 C 1664.300781 1448.390625 1670.570312 1452.148438 1675.390625 1457.96875 C 1680.238281 1463.761719 1682.648438 1470.898438 1682.648438 1479.371094 C 1682.648438 1486.421875 1681 1492.628906 1677.648438 1497.960938 C 1674.339844 1503.328125 1669.578125 1507.367188 1663.371094 1510.109375 C 1657.191406 1512.851562 1648.628906 1514.234375 1637.71875 1514.296875 L 1684.460938 1574.691406 L 1668.519531 1574.691406 L 1621.78125 1514.296875 L 1614.300781 1514.296875 L 1614.300781 1574.691406 L 1601.28125 1574.691406 Z M 1614.300781 1457.519531 L 1614.300781 1501.640625 L 1636.71875 1501.820312 C 1645.441406 1501.820312 1651.851562 1501.003906 1656.011719 1499.351562 C 1660.171875 1497.691406 1663.429688 1495.070312 1665.78125 1491.449219 C 1668.101562 1487.839844 1669.269531 1483.800781 1669.269531 1479.308594 C 1669.269531 1474.96875 1668.101562 1470.988281 1665.71875 1467.429688 C 1663.371094 1463.878906 1660.261719 1461.351562 1656.398438 1459.808594 C 1652.578125 1458.269531 1646.191406 1457.519531 1637.269531 1457.519531 Z M 1787.859375 1444.859375 L 1802.71875 1444.859375 L 1836.289062 1499.078125 L 1869.289062 1444.859375 L 1884.058594 1444.859375 L 1842.828125 1512.609375 L 1842.828125 1574.691406 L 1829.808594 1574.691406 L 1829.808594 1512.609375 L 1787.859375 1444.859375 "/>
<path fill-rule="evenodd" fill="rgb(0%, 0%, 0%)" fill-opacity="1" d="M 975.980469 1665.105469 L 975.980469 1658.679688 L 1012.058594 1658.679688 L 1012.058594 1665.105469 L 997.371094 1665.105469 L 997.371094 1724.59375 L 990.667969 1724.59375 L 990.667969 1665.105469 L 975.980469 1665.105469 "/>
<path fill-rule="evenodd" fill="rgb(0%, 0%, 0%)" fill-opacity="1" d="M 1079.511719 1658.679688 L 1110.269531 1724.59375 L 1103.179688 1724.59375 L 1092.890625 1702.929688 L 1064.320312 1702.929688 L 1054.078125 1724.59375 L 1046.738281 1724.59375 L 1077.859375 1658.679688 Z M 1078.691406 1672.507812 L 1067.351562 1696.5 L 1089.980469 1696.5 Z M 1078.691406 1672.507812 "/>
<path fill-rule="evenodd" fill="rgb(0%, 0%, 0%)" fill-opacity="1" d="M 1215.070312 1669.722656 L 1209.960938 1674.558594 C 1206.269531 1670.949219 1202.238281 1668.210938 1197.839844 1666.34375 C 1193.449219 1664.476562 1189.171875 1663.542969 1184.988281 1663.542969 C 1179.800781 1663.542969 1174.859375 1664.816406 1170.179688 1667.355469 C 1165.480469 1669.894531 1161.839844 1673.335938 1159.269531 1677.695312 C 1156.691406 1682.039062 1155.398438 1686.632812 1155.398438 1691.484375 C 1155.398438 1696.4375 1156.730469 1701.152344 1159.390625 1705.636719 C 1162.050781 1710.101562 1165.738281 1713.605469 1170.441406 1716.160156 C 1175.148438 1718.71875 1180.289062 1720.003906 1185.890625 1720.003906 C 1192.691406 1720.003906 1198.441406 1718.089844 1203.140625 1714.277344 C 1207.839844 1710.46875 1210.621094 1705.511719 1211.488281 1699.4375 L 1190.46875 1699.4375 L 1190.46875 1693.011719 L 1218.929688 1693.011719 C 1218.871094 1703.1875 1215.839844 1711.28125 1209.839844 1717.261719 C 1203.828125 1723.246094 1195.808594 1726.246094 1185.738281 1726.246094 C 1173.53125 1726.246094 1163.859375 1722.097656 1156.730469 1713.789062 C 1151.25 1707.394531 1148.511719 1700.003906 1148.511719 1691.605469 C 1148.519531 1685.378906 1150.089844 1679.5625 1153.230469 1674.175781 C 1156.378906 1668.804688 1160.691406 1664.597656 1166.171875 1661.570312 C 1171.671875 1658.539062 1177.859375 1657.027344 1184.78125 1657.027344 C 1190.378906 1657.027344 1195.660156 1658.035156 1200.601562 1660.039062 C 1205.539062 1662.058594 1210.371094 1665.273438 1215.070312 1669.722656 "/>
<path fill-rule="evenodd" fill="rgb(0%, 0%, 0%)" fill-opacity="1" d="M 1262.351562 1658.679688 L 1268.960938 1658.679688 L 1268.960938 1718.164062 L 1294.378906 1718.164062 L 1294.378906 1724.59375 L 1262.351562 1724.59375 L 1262.351562 1658.679688 "/>
<path fill-rule="evenodd" fill="rgb(0%, 0%, 0%)" fill-opacity="1" d="M 1334.761719 1658.679688 L 1341.371094 1658.679688 L 1341.371094 1724.59375 L 1334.761719 1724.59375 L 1334.761719 1658.679688 "/>
<path fill-rule="evenodd" fill="rgb(0%, 0%, 0%)" fill-opacity="1" d="M 1387.449219 1724.59375 L 1387.449219 1658.679688 L 1388.871094 1658.679688 L 1432.710938 1709.09375 L 1432.710938 1658.679688 L 1439.320312 1658.679688 L 1439.320312 1724.59375 L 1437.820312 1724.59375 L 1394.238281 1674.621094 L 1394.238281 1724.59375 L 1387.449219 1724.59375 "/>
<path fill-rule="evenodd" fill="rgb(0%, 0%, 0%)" fill-opacity="1" d="M 1486.289062 1658.679688 L 1524.019531 1658.679688 L 1524.019531 1665.105469 L 1492.898438 1665.105469 L 1492.898438 1685.757812 L 1523.738281 1685.757812 L 1523.738281 1692.183594 L 1492.898438 1692.183594 L 1492.898438 1718.164062 L 1523.738281 1718.164062 L 1523.738281 1724.59375 L 1486.289062 1724.59375 L 1486.289062 1658.679688 "/>
</svg>
